<svg width="22" height="22" viewBox="0 0 22 22" fill="none" xmlns="http://www.w3.org/2000/svg">
<path fill-rule="evenodd" clip-rule="evenodd" d="M0.375 11C0.375 5.13197 5.13197 0.375 11 0.375C16.868 0.375 21.625 5.13197 21.625 11C21.625 16.868 16.868 21.625 11 21.625C5.13197 21.625 0.375 16.868 0.375 11ZM11.9375 4.75C11.9375 4.23223 11.5178 3.8125 11 3.8125C10.4822 3.8125 10.0625 4.23223 10.0625 4.75V11C10.0625 11.3232 10.229 11.6237 10.5031 11.795L14.2531 14.1387C14.6922 14.4132 15.2706 14.2797 15.545 13.8406C15.8194 13.4016 15.6859 12.8232 15.2469 12.5488L11.9375 10.4804V4.75Z" fill="#EF7958"/>
</svg>
