<svg width="20" height="22" viewBox="0 0 20 22" fill="none" xmlns="http://www.w3.org/2000/svg">
<path d="M11.025 1.13299C10.7328 0.610908 10.1859 0.381108 9.69893 0.37512C9.21303 0.369143 8.653 0.586728 8.36555 1.12424L8.16021 1.50821C5.03505 7.35197 2.53073 13.4438 0.67803 19.7097C0.479675 20.3806 0.853962 20.939 1.3005 21.2069C1.74548 21.4739 2.37496 21.5377 2.91414 21.1972L8.70349 17.5409C9.42133 17.0876 10.4387 17.0935 11.1906 17.577L17.0999 21.3772C17.6318 21.7192 18.2588 21.6829 18.713 21.4164C19.1754 21.1451 19.5278 20.5753 19.3106 19.908C17.2562 13.5959 14.5558 7.44253 11.2428 1.52217L11.025 1.13299Z" fill="#1D1D1D"/>
</svg>
