<svg width="21" height="22" viewBox="0 0 21 22" fill="none" xmlns="http://www.w3.org/2000/svg">
<path d="M10.5 0.6875C7.91117 0.6875 5.8125 2.78617 5.8125 5.375C5.8125 7.96383 7.91117 10.0625 10.5 10.0625C13.0888 10.0625 15.1875 7.96383 15.1875 5.375C15.1875 2.78617 13.0888 0.6875 10.5 0.6875Z" fill="#1D1D1D"/>
<path d="M5.5 12.5625C2.91116 12.5625 0.8125 14.6612 0.8125 17.25V18.7354C0.8125 19.6769 1.49485 20.4797 2.42409 20.6314C7.77262 21.5046 13.2274 21.5046 18.5759 20.6314C19.5051 20.4797 20.1875 19.6769 20.1875 18.7354V17.25C20.1875 14.6612 18.0888 12.5625 15.5 12.5625H15.0739C14.8433 12.5625 14.6141 12.599 14.3949 12.6706L13.313 13.0238C11.4852 13.6207 9.51484 13.6207 7.68698 13.0238L6.60509 12.6706C6.38587 12.599 6.1567 12.5625 5.92609 12.5625H5.5Z" fill="#1D1D1D"/>
</svg>
